<svg width="48" height="48" viewBox="0 0 48 48" fill="none" xmlns="http://www.w3.org/2000/svg">
<mask id="mask0" mask-type="alpha" maskUnits="userSpaceOnUse" x="0" y="0" width="48" height="48">
<path d="M48 24C48 37.2548 37.2548 48 24 48C10.7452 48 0 37.2548 0 24C0 10.7452 10.7452 0 24 0C37.2548 0 48 10.7452 48 24Z" fill="#E8EFFF"/>
</mask>
<g mask="url(#mask0)">
<path d="M48 24C48 37.2548 37.2548 48 24 48C10.7452 48 0 37.2548 0 24C0 10.7452 10.7452 0 24 0C37.2548 0 48 10.7452 48 24Z" fill="#E8EFFF"/>
<circle cx="46" cy="16.0286" r="1.02857" fill="#BACAF0"/>
<circle cx="46" cy="25.6285" r="1.02857" fill="#BACAF0"/>
<circle cx="46" cy="20.8286" r="1.02857" fill="#3D58FF"/>
<circle cx="35.0286" cy="16.0286" r="1.02857" fill="#BACAF0"/>
<circle cx="35.0286" cy="25.6285" r="1.02857" fill="#ECAE00"/>
<circle cx="35.0286" cy="20.8286" r="1.02857" fill="#BACAF0"/>
<circle cx="40.5143" cy="16.0286" r="1.02857" fill="#BACAF0"/>
<circle cx="40.5143" cy="25.6285" r="1.02857" fill="#BACAF0"/>
<circle cx="40.5143" cy="20.8286" r="1.02857" fill="#BACAF0"/>
<path d="M-0.171253 27.43L11.1209 12.9677C12.669 10.985 15.449 10.4611 17.6125 11.7443L33.2184 21.0001L37.0004 40.6392C37.2092 41.7239 36.4993 42.7725 35.4146 42.9814L5.95282 48.6549C4.86818 48.8638 3.81958 48.1538 3.61071 47.0692L-0.171253 27.43Z" fill="#3146CC"/>
<path d="M21.5775 14.9182L20.8393 8.96381L26.5395 14.3031L21.5775 14.9182Z" fill="#94A8D4"/>
<path d="M6.19931 12.7941C6.06341 11.6979 6.84188 10.6991 7.93805 10.5632L20.8393 8.96383L21.516 14.422C21.5499 14.6961 21.7996 14.8907 22.0737 14.8567L26.5395 14.3031L28.754 32.1664C28.8899 33.2625 28.1114 34.2613 27.0153 34.3972L11.1368 36.3657C10.0406 36.5016 9.04184 35.7231 8.90594 34.6269L6.19931 12.7941Z" fill="#B7C8EC"/>
<rect x="9.95935" y="19.3224" width="12.9464" height="1.73611" rx="0.868056" transform="rotate(-6.87526 9.95935 19.3224)" fill="white"/>
<rect width="8.73855" height="1.74771" rx="0.873855" transform="matrix(-0.992862 0.11927 0.11927 0.992862 19.0284 22.7325)" fill="#94A8D4"/>
<rect x="3.88973" y="9.2009" width="19.7" height="25.7" rx="1.85" transform="rotate(-7.06695 3.88973 9.2009)" stroke="white" stroke-width="0.3"/>
<path d="M-0.171509 27.4299L17.8045 32.6998C18.4445 32.8874 19.1358 32.7437 19.648 32.3166L33.2181 21L37.0001 40.6392C37.209 41.7238 36.499 42.7724 35.4144 42.9813L5.95256 48.6548C4.86792 48.8637 3.81932 48.1537 3.61045 47.0691L-0.171509 27.4299Z" fill="#506FFF"/>
<path fill-rule="evenodd" clip-rule="evenodd" d="M19.0949 32.6435C19.2931 32.566 19.4802 32.4565 19.648 32.3166L33.2182 21L37.0001 40.6392C37.1034 41.1753 36.9821 41.7027 36.702 42.1242L19.0949 32.6435ZM4.71394 48.4965C4.16043 48.2322 3.73534 47.7176 3.61045 47.0691L-0.171509 27.4299L17.8045 32.6998C18.0637 32.7758 18.3314 32.7974 18.5921 32.7679L4.71394 48.4965Z" fill="#6A84FF"/>
</g>
</svg>
