<svg width="48" height="48" viewBox="0 0 48 48" fill="none" xmlns="http://www.w3.org/2000/svg">
<mask id="mask0" mask-type="alpha" maskUnits="userSpaceOnUse" x="0" y="0" width="48" height="48">
<path d="M48 24C48 37.2548 37.2548 48 24 48C10.7452 48 0 37.2548 0 24C0 10.7452 10.7452 0 24 0C37.2548 0 48 10.7452 48 24Z" fill="#E8EFFF"/>
</mask>
<g mask="url(#mask0)">
<path d="M48 24C48 37.2548 37.2548 48 24 48C10.7452 48 0 37.2548 0 24C0 10.7452 10.7452 0 24 0C37.2548 0 48 10.7452 48 24Z" fill="#E8EFFF"/>
<circle cx="12" cy="16" r="1" transform="rotate(-180 12 16)" fill="#C6D4F2"/>
<circle cx="12" cy="21" r="1" transform="rotate(-180 12 21)" fill="#C6D4F2"/>
<circle cx="12" cy="26" r="1" transform="rotate(-180 12 26)" fill="#F2BC19"/>
<circle cx="12" cy="11" r="1" transform="rotate(-180 12 11)" fill="#C6D4F2"/>
<circle cx="8" cy="16" r="1" transform="rotate(-180 8 16)" fill="#48C5A1"/>
<circle cx="8" cy="21" r="1" transform="rotate(-180 8 21)" fill="#C6D4F2"/>
<circle cx="8" cy="26" r="1" transform="rotate(-180 8 26)" fill="#C6D4F2"/>
<circle cx="8" cy="11" r="1" transform="rotate(-180 8 11)" fill="#C6D4F2"/>
<circle cx="4" cy="16" r="1" transform="rotate(-180 4 16)" fill="#C6D4F2"/>
<circle cx="4" cy="21" r="1" transform="rotate(-180 4 21)" fill="#506FFF"/>
<circle cx="4" cy="26" r="1" transform="rotate(-180 4 26)" fill="#C6D4F2"/>
<circle cx="4" cy="11" r="1" transform="rotate(-180 4 11)" fill="#C6D4F2"/>
<circle cx="8.74228e-08" cy="16" r="1" transform="rotate(-180 8.74228e-08 16)" fill="#C6D4F2"/>
<circle cx="8.74228e-08" cy="21" r="1" transform="rotate(-180 8.74228e-08 21)" fill="#C6D4F2"/>
<circle cx="8.74228e-08" cy="26" r="1" transform="rotate(-180 8.74228e-08 26)" fill="#C6D4F2"/>
<circle cx="8.74228e-08" cy="11" r="1" transform="rotate(-180 8.74228e-08 11)" fill="#48C5A1"/>
<path fill-rule="evenodd" clip-rule="evenodd" d="M26.1119 45.6372C34.287 47.2895 41.7398 42.0125 43.3648 33.9732C44.9897 25.9339 40.1715 18.1766 31.9964 16.5242C23.8213 14.8718 15.8768 20.0494 14.2518 28.0888C12.6269 36.1281 17.9368 43.9848 26.1119 45.6372ZM15.3687 37.9935L12.8184 42.7643C12.6266 43.1233 12.9211 43.5489 13.3247 43.4958L19.2703 42.7126L15.3687 37.9935Z" fill="white"/>
<path d="M32.8303 15.0979L32.8226 15.0963C24.3741 13.3887 16.0454 19.2158 14.2519 28.0887C13.5405 31.6081 13.9615 35.0885 15.2629 38.1083L12.626 42.8372C12.4265 43.195 12.7183 43.6277 13.1247 43.5769L18.4344 42.9129C20.5167 45.0879 23.2102 46.6455 26.3264 47.2753C34.7749 48.983 43.1041 43.1538 44.8971 34.2829C46.6902 25.412 41.2788 16.8055 32.8303 15.0979ZM37.154 39.6193C36.5628 40.6406 34.9119 41.2531 33.688 41.282C32.8512 41.2992 31.7766 41.2306 28.566 38.9866C24.4589 36.1176 22.5303 30.727 22.3673 30.3696C22.2138 30.0141 21.0619 27.4578 21.5286 25.149C21.9952 22.8403 23.3391 21.9418 23.8867 21.5501C24.3365 21.2287 24.984 21.1712 25.5701 21.2896C25.7598 21.3279 25.9282 21.3725 26.0798 21.4115C26.5258 21.5226 26.7461 21.5964 26.8922 22.4025C27.0728 23.4124 27.5064 25.9031 27.5657 26.1621C27.6269 26.4214 27.671 26.7653 27.4548 27.046C27.2461 27.3388 27.0908 27.456 26.8095 27.6838C26.5283 27.9117 26.2715 28.0775 25.9861 28.3254C25.7276 28.539 25.5366 29.2079 25.7016 29.7332C25.8686 30.2484 26.359 31.5302 27.4341 33.0369C28.8213 34.9814 30.1047 35.7725 30.5569 36.09C30.894 36.3256 31.3423 36.3764 31.6733 36.1294C32.0946 35.8105 32.648 35.2525 33.207 34.7061C33.6053 34.3136 34.0036 34.3355 34.3771 34.5784C34.7603 34.8129 36.7199 36.3916 37.1224 36.7179C37.5245 37.0462 37.7987 37.2188 37.8676 37.44C37.9346 37.6608 37.7456 38.5959 37.154 39.6193Z" fill="#506FFF"/>
<path fill-rule="evenodd" clip-rule="evenodd" d="M43.6029 23.6327C42.2243 27.438 38.2322 29.7636 34.1456 28.9375C29.6469 28.0283 26.7371 23.6442 27.6464 19.1456C27.9948 17.4221 28.8531 15.9319 30.0325 14.8002C30.9553 14.8108 31.8882 14.9075 32.8226 15.0964L32.8303 15.0979C37.691 16.0804 41.5464 19.3465 43.6029 23.6327Z" fill="#3146CC"/>
<circle cx="37" cy="19" r="8" fill="#F65D6D"/>
<circle cx="38" cy="20" r="7.85" stroke="white" stroke-width="0.3"/>
<path d="M36.5312 19.66L36.5091 16.4892C36.5063 15.8715 36.513 15.4285 36.529 15.1604C36.5509 14.7956 36.6627 14.5178 36.8643 14.3269C37.0706 14.132 37.3302 14.0439 37.6431 14.0626C38.0221 14.0854 38.2676 14.2324 38.3796 14.5038C38.4919 14.7708 38.5332 15.1505 38.5037 15.6427C38.4863 15.9328 38.4532 16.2264 38.4045 16.5235L37.9253 19.7568C37.8712 20.1418 37.7873 20.4345 37.6736 20.635C37.5598 20.8355 37.3862 20.9288 37.1526 20.9148C36.9146 20.9005 36.7553 20.7917 36.6746 20.5884C36.5942 20.3806 36.5464 20.0712 36.5312 19.66ZM37.0048 24.0423C36.736 24.0262 36.5054 23.9264 36.3129 23.7428C36.1251 23.5551 36.0406 23.3052 36.0593 22.9931C36.0757 22.7206 36.1843 22.4955 36.3851 22.3179C36.5906 22.1361 36.8322 22.0535 37.1098 22.0702C37.3875 22.0868 37.6175 22.1977 37.7998 22.4027C37.9868 22.6036 38.0721 22.8403 38.0557 23.1128C38.0373 23.4205 37.9236 23.6563 37.7148 23.8202C37.5059 23.9841 37.2693 24.0582 37.0048 24.0423Z" fill="white"/>
</g>
</svg>
