<svg width="124" height="119" viewBox="0 0 124 119" fill="none" xmlns="http://www.w3.org/2000/svg">
<ellipse cx="62" cy="59.5" rx="62" ry="59.5" fill="#977272"/>
<path d="M41.125 48.6667V75.7084C41.125 81.1191 45.3858 83.0834 48.25 83.0834H83.875V78.1667H48.2785C47.1813 78.1372 45.875 77.6898 45.875 75.7084C45.875 73.7269 47.1813 73.2795 48.2785 73.25H83.875V38.8334C83.875 36.1218 81.7446 33.9167 79.125 33.9167H48.25C45.3858 33.9167 41.125 35.8809 41.125 41.2917V48.6667ZM48.25 38.8334H79.125V68.3334H45.875V41.2917C45.875 39.3103 47.1813 38.8629 48.25 38.8334Z" fill="white"/>
<path d="M62.4929 63.4167L70.4492 55.3312C70.9397 54.8429 71.33 54.257 71.5966 53.6088C71.8631 52.9606 72.0006 52.2634 72.0006 51.5589C72.0006 50.8544 71.8631 50.1572 71.5966 49.509C71.33 48.8607 70.9397 48.2749 70.4492 47.7866C69.4602 46.7762 68.1266 46.2097 66.7371 46.2097C65.3475 46.2097 64.0139 46.7762 63.0249 47.7866L62.4929 48.3225L61.9609 47.7841C60.9724 46.7739 59.6391 46.2075 58.25 46.2075C56.8608 46.2075 55.5276 46.7739 54.539 47.7841C54.0485 48.2725 53.6582 48.8583 53.3917 49.5065C53.1251 50.1547 52.9877 50.8519 52.9877 51.5564C52.9877 52.2609 53.1251 52.9582 53.3917 53.6064C53.6582 54.2546 54.0485 54.8404 54.539 55.3287L62.4929 63.4167Z" fill="white"/>
</svg>
